<?xml version="1.0" encoding="UTF-8"?>
<svg xmlns="http://www.w3.org/2000/svg" width="128" height="128" viewBox="0 0 128 128">
  <defs>
    <linearGradient id="g" x1="0" y1="0" x2="0" y2="1">
      <stop offset="0%" stop-color="#7eb6ff"/>
      <stop offset="100%" stop-color="#4a90d9"/>
    </linearGradient>
  </defs>
  <!-- >1;0:> -->
  <path fill="url(#g)" stroke="#2a6bb5" stroke-width="2" stroke-linejoin="round"
        d="M88 72c0-12-10-22-22-22-2 0-4 0-6 1-5-14-18-24-34-24-20 0-36 16-36 36 0 17 13 31 30 34h78c11 0 20-9 20-20 0-10-8-18-18-19 1-3 1-5 1-8 0-16-13-29-29-29-9 0-17 4-22 11 12 2 22 11 26 23z"/>
</svg>
